<svg id="Layer_1" data-name="Layer 1" xmlns="http://www.w3.org/2000/svg" viewBox="0 0 0.91 1.35"><title>both</title><path d="M.8,1.15,1.21.66a0,0,0,0,1,0,0l.4.49a0,0,0,0,1,0,.05H.83a0,0,0,0,1,0-.05Z" transform="translate(-0.77 -0.63)"/><path d="M.82,1.17l0,0L.92,1,1,.93l.1-.12L1.19.72l0,0h0v0l.07.08.09.11.1.12.08.1,0,.06H.88s0,0-.05,0h0a0,0,0,0,0,0,0s0,0,0,0a.06.06,0,0,0,0,.06l0,0h.82a.05.05,0,0,0,0-.05.06.06,0,0,0,0,0h0L1.59,1,1.5.93,1.4.81,1.32.71,1.27.65a.07.07,0,0,0-.06,0l0,0L1.13.72,1,.83.94,1l-.09.11,0,.07h0s0,0,0,0a0,0,0,0,0,0,0Z" transform="translate(-0.77 -0.63)"/><path d="M.8,1.46,1.21,2a0,0,0,0,0,0,0l.4-.49a0,0,0,0,0,0-.05H.83a0,0,0,0,0,0,.05Z" transform="translate(-0.77 -0.63)"/><path d="M.79,1.47l0,0,.07.09.1.12.1.12.07.09s0,0,.05.05l.06,0,0,0,.07-.09.09-.11.1-.12.08-.1,0-.05a0,0,0,0,0,0,0s0-.05,0-.05H.83l0,0a.06.06,0,0,0,0,.06h0a0,0,0,0,0,0,0h.81s0,0,0,0h0v0l-.07.08-.09.12-.1.11-.08.1,0,.06h0l-.05-.07-.09-.11L1,1.62.88,1.51.83,1.45h0a0,0,0,0,0,0,0,0,0,0,0,0,0,0Z" transform="translate(-0.77 -0.63)"/></svg>