<?xml version="1.0" encoding="UTF-8"?>
<svg width="100pt" height="100pt" version="1.1" viewBox="0 0 100 100" xmlns="http://www.w3.org/2000/svg">
 <g>
  <path d="m17.5 95h65c1.3828 0 2.5-1.1172 2.5-2.5v-80c0-1.3828-1.1172-2.5-2.5-2.5h-12.93c-1.043-2.9453-3.9414-5-7.2617-5h-24.594c-3.3047 0-6.1992 2.0898-7.2695 5h-12.945c-1.3828 0-2.5 1.1172-2.5 2.5v80c0 1.3828 1.1172 2.5 2.5 2.5zm18.148-80.82c-0.48047-0.52734-0.70703-1.2148-0.63672-1.9336 0.12109-1.2617 1.3086-2.2461 2.7031-2.2461h24.598c1.2773 0 2.4102 0.84375 2.6328 1.957 0.21094 1.0508-0.23047 1.7812-0.51172 2.125-0.47656 0.58203-1.1797 0.91797-1.9336 0.91797h-25c-0.71484 0-1.3711-0.28906-1.8516-0.82031zm-15.648 0.82031h10.438c0.32812 0.93359 0.83594 1.8008 1.5117 2.5469 1.418 1.5586 3.4414 2.4531 5.5508 2.4531h25c2.2578 0 4.3711-1.0039 5.8047-2.7461 0.55859-0.67969 0.97656-1.4414 1.2656-2.2539h10.43v75h-60z"/>
  <path d="m40.73 28.23l-8.2305 8.2344-3.2305-3.2305c-0.97656-0.97656-2.5586-0.97656-3.5352 0s-0.97656 2.5586 0 3.5352l5 5c0.48438 0.48828 1.125 0.73047 1.7656 0.73047s1.2812-0.24219 1.7695-0.73047l10-10c0.97656-0.97656 0.97656-2.5586 0-3.5352-0.97656-0.97656-2.5625-0.97656-3.5391-0.003906z"/>
  <path d="m40.73 48.23l-8.2305 8.2344-3.2305-3.2305c-0.97656-0.97656-2.5586-0.97656-3.5352 0s-0.97656 2.5586 0 3.5352l5 5c0.48438 0.48828 1.125 0.73047 1.7656 0.73047s1.2812-0.24219 1.7695-0.73047l10-10c0.97656-0.97656 0.97656-2.5586 0-3.5352-0.97656-0.97656-2.5625-0.97656-3.5391-0.003906z"/>
  <path d="m40.73 68.23l-8.2305 8.2344-3.2305-3.2305c-0.97656-0.97656-2.5586-0.97656-3.5352 0s-0.97656 2.5586 0 3.5352l5 5c0.48438 0.48828 1.125 0.73047 1.7656 0.73047s1.2812-0.24219 1.7695-0.73047l10-10c0.97656-0.97656 0.97656-2.5586 0-3.5352-0.97656-0.97656-2.5625-0.97656-3.5391-0.003906z"/>
  <path d="m72.5 27.5h-20c-1.3828 0-2.5 1.1172-2.5 2.5s1.1172 2.5 2.5 2.5h20c1.3828 0 2.5-1.1172 2.5-2.5s-1.1172-2.5-2.5-2.5z"/>
  <path d="m52.5 42.5h10c1.3828 0 2.5-1.1172 2.5-2.5s-1.1172-2.5-2.5-2.5h-10c-1.3828 0-2.5 1.1172-2.5 2.5s1.1172 2.5 2.5 2.5z"/>
  <path d="m72.5 47.5h-20c-1.3828 0-2.5 1.1172-2.5 2.5s1.1172 2.5 2.5 2.5h20c1.3828 0 2.5-1.1172 2.5-2.5s-1.1172-2.5-2.5-2.5z"/>
  <path d="m52.5 62.5h10c1.3828 0 2.5-1.1172 2.5-2.5s-1.1172-2.5-2.5-2.5h-10c-1.3828 0-2.5 1.1172-2.5 2.5s1.1172 2.5 2.5 2.5z"/>
  <path d="m72.5 67.5h-20c-1.3828 0-2.5 1.1172-2.5 2.5s1.1172 2.5 2.5 2.5h20c1.3828 0 2.5-1.1172 2.5-2.5s-1.1172-2.5-2.5-2.5z"/>
  <path d="m62.5 77.5h-10c-1.3828 0-2.5 1.1172-2.5 2.5s1.1172 2.5 2.5 2.5h10c1.3828 0 2.5-1.1172 2.5-2.5s-1.1172-2.5-2.5-2.5z"/>
 </g>
</svg>
